<svg viewBox="0 0 40 40" fill="currentColor" xmlns="http://www.w3.org/2000/svg"><path d="M20.031 36c-5.75 0-11-3-13.875-8-2.875-4.938-2.875-11 0-16 2.875-4.938 8.125-8 13.875-8 5.688 0 10.938 3.063 13.813 8 2.875 5 2.875 11.063 0 16-2.875 5-8.125 8-13.813 8ZM14.97 14.937c-.625.626-.625 1.563 0 2.126L17.906 20l-2.937 2.938c-.625.625-.625 1.562 0 2.125.562.625 1.5.625 2.062 0l2.938-2.938 2.937 2.938c.625.625 1.563.625 2.125 0 .625-.563.625-1.5 0-2.125L22.094 20l2.937-2.938c.625-.562.625-1.5 0-2.125-.562-.562-1.5-.562-2.125 0l-2.937 2.938-2.938-2.938a1.471 1.471 0 0 0-2.062 0Z"/></svg>