<svg viewBox="0 0 1600 60" fill="none" xmlns="http://www.w3.org/2000/svg">
<g clip-path="url(#clip0_1151_4489)">
<path d="M-14.9547 1.35453L830 41L862.5 21.5L864 7L1599.82 50.1824L1597.77 117.828L-17.0001 69L-14.9547 1.35453Z" fill="black"/>
<path d="M832.322 12.4081L864.244 14.6403L861.542 53.2839L829.62 51.0517L832.322 12.4081Z" fill="black"/>
<path d="M838.306 12.8266L858.253 14.2214L858.638 8.70844C858.705 7.75165 857.992 6.92342 857.043 6.85711L840.522 5.70179C839.573 5.63547 838.751 6.35633 838.684 7.31312L838.299 12.826L838.306 12.8266Z" fill="black"/>
</g>
<defs>
<clipPath id="clip0_1151_4489">
<rect width="1600" height="60" fill="white" transform="matrix(1 8.74228e-08 8.74228e-08 -1 0 60)"/>
</clipPath>
</defs>
</svg>
