<svg viewBox="0 0 768 50" fill="none" xmlns="http://www.w3.org/2000/svg">
<g clip-path="url(#clip0_1151_4569)">
<path d="M765.871 85.8633L-11.752 54.3713L-9.99738 11.0452L401.5 33.5L417 15L428 16L428.5 11.5L767.626 42.5372L765.871 85.8633Z" fill="black"/>
<path d="M403.356 14.6644L428.537 16.7188L426.072 46.9351L400.891 44.8808L403.356 14.6644Z" fill="black"/>
<path d="M408.078 15.0496L423.813 16.3332L424.164 12.0225C424.225 11.2744 423.669 10.6193 422.921 10.5583L409.888 9.49506C409.14 9.43403 408.485 9.99025 408.424 10.7384L408.072 15.0491L408.078 15.0496Z" fill="black"/>
</g>
<defs>
<clipPath id="clip0_1151_4569">
<rect width="768" height="50" fill="white" transform="matrix(-1 0 0 1 768 0)"/>
</clipPath>
</defs>
</svg>
